<svg xmlns="http://www.w3.org/2000/svg" viewBox="0 0 128 128" width="50" height="50"><path fill="#fff" d="M96,119H32c-5.5,0-10-4.5-10-10V19c0-5.5,4.5-10,10-10h54c11,0,20,9,20,20v80C106,114.5,101.5,119,96,119z"/><path fill="#71c2ff" d="M54 97c-5 0-9-4-9-9v-9c0-1.1-.9-2-2-2-1.7 0-3-1.3-3-3s1.3-3 3-3c1.1 0 2-.9 2-2v-9c0-5 4-9 9-9 1.7 0 3 1.3 3 3s-1.3 3-3 3c-1.7 0-3 1.3-3 3v9c0 1.9-.7 3.6-1.8 5 1.1 1.4 1.8 3.1 1.8 5v9c0 1.7 1.3 3 3 3 1.7 0 3 1.3 3 3S55.7 97 54 97zM74 97c-1.7 0-3-1.3-3-3s1.3-3 3-3c1.7 0 3-1.3 3-3v-9c0-1.9.7-3.6 1.8-5-1.1-1.4-1.8-3.1-1.8-5v-9c0-1.7-1.3-3-3-3-1.7 0-3-1.3-3-3s1.3-3 3-3c5 0 9 4 9 9v9c0 1.1.9 2 2 2 1.7 0 3 1.3 3 3s-1.3 3-3 3c-1.1 0-2 .9-2 2v9C83 93 79 97 74 97z"/><g><path fill="#444b54" d="M30,122h63.8c8.7,0,15-5.5,15-13l0.1-67c0-1.7-1.3-3-3-3c0,0,0,0,0,0c-1.7,0-3,1.3-3,3l-0.1,67c0,4.2-3.6,7-9,7H30c-1.7,0-5-3-5-7V19c0-3.9,3.1-7,7-7h51v7c0,7.2,5.8,13,13,13h9.6c0.1,0,0.2,0,0.4,0c0,0,0,0,0,0c1.2,0,2.3-0.8,2.8-1.8c0.2-0.4,0.3-0.8,0.3-1.2c0-0.1,0-0.3,0-0.4c-0.1-6-2.5-11.6-6.7-15.9C97.9,8.4,92.2,6,86,6c0,0,0,0,0,0H32c-7.2,0-13,5.8-13,13v90C19,116.3,24.9,122,30,122z M102.7,26H96c-3.9,0-7-3.1-7-7v-6.7c3.4,0.6,6.5,2.2,9,4.7C100.5,19.5,102.1,22.6,102.7,26z"/></g></svg>