<?xml version="1.0" encoding="UTF-8" standalone="yes"?>
<svg xmlns="http://www.w3.org/2000/svg" viewBox="0 0 100 100" width="50" height="50" fill="#000000">
  <path d="M 36.183594 15 C 31.766816 15 27.014534 16.005083 23.337891 19.25 C 19.732778 22.429931 18 26.310182 18 32 C 18 33.940476 18.51602 36.848743 19.019531 39.419922 C 19.271287 40.705511 19.521892 41.894998 19.708984 42.791016 C 19.802534 43.239025 19.879074 43.613813 19.931641 43.884766 C 19.967986 44.072093 19.98602 44.270198 19.994141 44.300781 C 19.97859 44.804274 19.821806 44.94885 19.494141 45.162109 C 19.148941 45.386781 18.625678 45.533438 18.119141 45.716797 C 17.189891 46.053448 16.386835 46.554951 15.828125 47.292969 C 15.269414 48.030987 15 48.969772 15 50 C 15 51.030228 15.269415 51.969013 15.828125 52.707031 C 16.386835 53.445049 17.189891 53.946552 18.119141 54.283203 C 18.625678 54.466562 19.148941 54.613219 19.494141 54.837891 C 19.821806 55.05115 19.97859 55.195726 19.994141 55.699219 C 19.98602 55.729803 19.967986 55.92791 19.931641 56.115234 C 19.879071 56.386187 19.802531 56.760975 19.708984 57.208984 C 19.521892 58.105002 19.271287 59.294489 19.019531 60.580078 C 18.516021 63.151257 18 66.059524 18 68 C 18 73.689818 19.732778 77.570069 23.337891 80.75 C 27.015462 83.99479 31.76778 85 36.183594 85 C 38.003133 85 39.525301 84.558975 40.550781 83.513672 C 41.498457 82.547654 42 81.264941 42 79.873047 C 42 78.70034 41.675842 77.593164 41.044922 76.642578 A 1.0001 1.0001 0 0 0 41.042969 76.640625 C 40.344537 75.592291 39.189331 75 38 75 C 35.75542 75 33.433302 74.532796 31.587891 73.191406 C 29.747889 71.854592 29 70.172359 29 68 C 29 67.016667 29.485112 64.049001 29.984375 61.277344 C 30.234006 59.891515 30.4842 58.526085 30.673828 57.390625 C 30.863456 56.255165 31 55.416811 31 54.794922 C 31 52.905866 30.284546 51.495914 29.474609 50.585938 C 29.161774 50.234462 28.957837 50.221607 28.658203 50 C 28.957837 49.778393 29.161774 49.765538 29.474609 49.414062 C 30.284546 48.504086 31 47.094134 31 45.205078 C 31 44.583189 30.863456 43.744835 30.673828 42.609375 C 30.4842 41.473915 30.234006 40.108485 29.984375 38.722656 C 29.485112 35.950999 29 32.983333 29 32 C 29 29.827641 29.747889 28.145408 31.587891 26.808594 C 33.433302 25.467204 35.75542 25 38 25 C 39.189331 25 40.34449 24.407756 41.042969 23.359375 A 1.0001 1.0001 0 0 0 41.044922 23.357422 C 41.675795 22.406883 42 21.29966 42 20.126953 C 42 18.735059 41.498365 17.452729 40.552734 16.486328 C 39.526953 15.440719 38.003133 15 36.183594 15 z M 63.816406 15 C 61.996867 15 60.474699 15.441025 59.449219 16.486328 C 58.501543 17.452346 58 18.735059 58 20.126953 C 58 21.29966 58.324158 22.406836 58.955078 23.357422 A 1.0001 1.0001 0 0 0 58.957031 23.359375 C 59.655463 24.407709 60.810669 25 62 25 C 64.24458 25 66.566698 25.467204 68.412109 26.808594 C 70.252111 28.145408 71 29.827641 71 32 C 71 32.983333 70.514888 35.950999 70.015625 38.722656 C 69.765994 40.108485 69.5158 41.473915 69.326172 42.609375 C 69.136544 43.744835 69 44.583189 69 45.205078 C 69 47.094134 69.715454 48.504086 70.525391 49.414062 C 70.838226 49.765538 71.042163 49.778393 71.341797 50 C 71.042163 50.221607 70.838226 50.234462 70.525391 50.585938 C 69.715454 51.495914 69 52.905866 69 54.794922 C 69 55.416811 69.136544 56.255165 69.326172 57.390625 C 69.5158 58.526085 69.765994 59.891515 70.015625 61.277344 C 70.514888 64.049001 71 67.016667 71 68 C 71 70.172359 70.252111 71.854592 68.412109 73.191406 C 66.566698 74.532796 64.24458 75 62 75 C 60.810669 75 59.65551 75.592244 58.957031 76.640625 A 1.0001 1.0001 0 0 0 58.955078 76.642578 C 58.324205 77.593117 58 78.70034 58 79.873047 C 58 81.264941 58.501635 82.547271 59.447266 83.513672 C 60.473047 84.559281 61.996867 85 63.816406 85 C 68.233184 85 72.985466 83.994917 76.662109 80.75 C 80.267222 77.570069 82 73.689818 82 68 C 82 66.059524 81.48398 63.151257 80.980469 60.580078 C 80.728713 59.294489 80.478108 58.105002 80.291016 57.208984 C 80.197469 56.760975 80.120926 56.386187 80.068359 56.115234 C 80.032017 55.927907 80.013981 55.729802 80.005859 55.699219 C 80.02141 55.195726 80.178194 55.05115 80.505859 54.837891 C 80.851059 54.613219 81.374322 54.466562 81.880859 54.283203 C 82.810109 53.946552 83.613165 53.445049 84.171875 52.707031 C 84.730585 51.969013 85 51.030228 85 50 C 85 48.969772 84.730585 48.030987 84.171875 47.292969 C 83.613165 46.554951 82.810109 46.053448 81.880859 45.716797 C 81.374322 45.533438 80.851059 45.386781 80.505859 45.162109 C 80.178194 44.94885 80.02141 44.804274 80.005859 44.300781 C 80.01398 44.270197 80.032014 44.07209 80.068359 43.884766 C 80.120929 43.613813 80.197469 43.239025 80.291016 42.791016 C 80.478108 41.894998 80.728713 40.705511 80.980469 39.419922 C 81.483979 36.848743 82 33.940476 82 32 C 82 26.310182 80.267222 22.429931 76.662109 19.25 C 72.984538 16.00521 68.23222 15 63.816406 15 z M 36.183594 17 C 37.686055 17 38.598781 17.350328 39.125 17.886719 C 39.725947 18.501758 40 19.177922 40 20.126953 C 40 20.945553 39.795313 21.619048 39.376953 22.25 C 39.376953 22.25 39.376953 22.251953 39.376953 22.251953 C 39.021738 22.783554 38.579689 23 38 23 C 35.48058 23 32.718698 23.514796 30.412109 25.191406 C 28.098111 26.872592 27 29.320359 27 32 C 27 33.516667 27.514888 36.298282 28.015625 39.078125 C 28.265994 40.468047 28.5158 41.829476 28.701172 42.939453 C 28.886544 44.049431 29 44.973967 29 45.205078 C 29 46.610022 28.518532 47.479461 27.980469 48.083984 C 27.442405 48.688508 26.793641 49.008207 26.638672 49.068359 A 1.0001 1.0001 0 0 0 26.638672 50.931641 C 26.793641 50.991791 27.442405 51.311492 27.980469 51.916016 C 28.518532 52.520539 29 53.389978 29 54.794922 C 29 55.026033 28.886544 55.950569 28.701172 57.060547 C 28.5158 58.170524 28.265994 59.531953 28.015625 60.921875 C 27.514888 63.701718 27 66.483333 27 68 C 27 70.679641 28.098111 73.127408 30.412109 74.808594 C 32.718698 76.485204 35.48058 77 38 77 C 38.580034 77 39.02163 77.217658 39.376953 77.75 C 39.795313 78.380952 40 79.054447 40 79.873047 C 40 80.823153 39.725371 81.499299 39.123047 82.113281 C 38.596527 82.649978 37.686055 83 36.183594 83 C 32.071407 83 27.850538 82.06321 24.662109 79.25 C 21.399222 76.371931 20 73.310182 20 68 C 20 66.440476 20.48398 63.500165 20.980469 60.964844 C 21.228713 59.697183 21.478108 58.51906 21.666016 57.619141 C 21.759966 57.169181 21.839676 56.788914 21.896484 56.496094 C 21.953293 56.203273 22 56.151268 22 55.771484 C 22 54.558081 21.302785 53.627985 20.583984 53.160156 C 19.865184 52.692328 19.118291 52.517984 18.798828 52.402344 C 18.116077 52.154995 17.689665 51.853732 17.421875 51.5 C 17.154085 51.146268 17 50.704772 17 50 C 17 49.295228 17.154085 48.853732 17.421875 48.5 C 17.689665 48.146268 18.116077 47.845005 18.798828 47.597656 C 19.118291 47.482016 19.865184 47.307672 20.583984 46.839844 C 21.302785 46.372015 22 45.441919 22 44.228516 C 22 43.848732 21.95329 43.796727 21.896484 43.503906 C 21.839674 43.211086 21.759969 42.830819 21.666016 42.380859 C 21.478108 41.48094 21.228713 40.302817 20.980469 39.035156 C 20.48398 36.499835 20 33.559524 20 32 C 20 26.689818 21.399222 23.628069 24.662109 20.75 C 27.849466 17.936917 32.070372 17 36.183594 17 z M 63.816406 17 C 67.928593 17 72.149462 17.93679 75.337891 20.75 C 78.600778 23.628069 80 26.689818 80 32 C 80 33.559524 79.51602 36.499835 79.019531 39.035156 C 78.771287 40.302817 78.521892 41.48094 78.333984 42.380859 C 78.240034 42.830819 78.160324 43.211086 78.103516 43.503906 C 78.046707 43.796727 78 43.848732 78 44.228516 C 78 45.441919 78.697215 46.372015 79.416016 46.839844 C 80.134816 47.307672 80.881709 47.482016 81.201172 47.597656 C 81.883923 47.845005 82.310335 48.146268 82.578125 48.5 C 82.845915 48.853732 83 49.295228 83 50 C 83 50.704772 82.845915 51.146268 82.578125 51.5 C 82.310335 51.853732 81.883923 52.154995 81.201172 52.402344 C 80.881709 52.517984 80.134816 52.692328 79.416016 53.160156 C 78.697215 53.627985 78 54.558081 78 55.771484 C 78 56.151268 78.04671 56.203273 78.103516 56.496094 C 78.160326 56.788914 78.240031 57.169181 78.333984 57.619141 C 78.521892 58.51906 78.771287 59.697183 79.019531 60.964844 C 79.51602 63.500165 80 66.440476 80 68 C 80 73.310182 78.600778 76.371931 75.337891 79.25 C 72.150534 82.063083 67.929628 83 63.816406 83 C 62.315513 83 61.403428 82.650676 60.876953 82.115234 L 60.875 82.113281 C 60.2741 81.498289 60 80.822078 60 79.873047 C 60 79.054447 60.204687 78.380952 60.623047 77.75 C 60.623047 77.75 60.623047 77.748047 60.623047 77.748047 C 60.978262 77.216446 61.420311 77 62 77 C 64.51942 77 67.281302 76.485204 69.587891 74.808594 C 71.901889 73.127408 73 70.679641 73 68 C 73 66.483333 72.485112 63.701718 71.984375 60.921875 C 71.734006 59.531953 71.4842 58.170524 71.298828 57.060547 C 71.113456 55.950569 71 55.026033 71 54.794922 C 71 53.389978 71.481468 52.520539 72.019531 51.916016 C 72.557595 51.311492 73.206359 50.991793 73.361328 50.931641 A 1.0001 1.0001 0 0 0 73.361328 49.068359 C 73.206359 49.008207 72.557595 48.688508 72.019531 48.083984 C 71.481468 47.479461 71 46.610022 71 45.205078 C 71 44.973967 71.113456 44.049431 71.298828 42.939453 C 71.4842 41.829476 71.734006 40.468047 71.984375 39.078125 C 72.485112 36.298282 73 33.516667 73 32 C 73 29.320359 71.901889 26.872592 69.587891 25.191406 C 67.281302 23.514796 64.51942 23 62 23 C 61.420311 23 60.978262 22.783601 60.623047 22.251953 L 60.623047 22.25 C 60.204687 21.619048 60 20.945553 60 20.126953 C 60 19.176847 60.274629 18.500701 60.876953 17.886719 C 61.403473 17.350022 62.313945 17 63.816406 17 z M 63.816406 19 C 63.691786 19 63.579147 19.002413 63.474609 19.007812 A 0.50064429 0.50064429 0 1 0 63.525391 20.007812 C 63.612855 20.00327 63.709027 20 63.816406 20 C 64.029039 20 64.244382 20.014124 64.484375 20.021484 A 0.50024408 0.50024408 0 0 0 64.515625 19.021484 C 64.299618 19.014857 64.071774 19 63.816406 19 z M 66.460938 19.166016 A 0.50005 0.50005 0 0 0 66.439453 20.162109 C 67.869682 20.338452 69.163067 20.664284 70.310547 21.136719 A 0.50016003 0.50016003 0 1 0 70.689453 20.210938 C 69.446933 19.699372 68.066318 19.355579 66.560547 19.169922 A 0.50005 0.50005 0 0 0 66.460938 19.166016 z M 74.501953 22.904297 A 0.50005 0.50005 0 0 0 74.140625 23.757812 C 76.221184 25.900894 77 28.154228 77 32 C 77 33.995054 75.969712 39.032965 75.46875 41.425781 C 75.254683 42.448103 75.138693 43.007649 75.072266 43.419922 A 0.50005 0.50005 0 1 0 76.058594 43.580078 C 76.118164 43.210351 76.233333 42.652538 76.447266 41.630859 C 76.948304 39.237676 78 34.316946 78 32 C 78 28.011772 77.104816 25.375418 74.859375 23.0625 A 0.50005 0.50005 0 0 0 74.501953 22.904297 z M 24.408203 55.994141 A 0.50005 0.50005 0 0 0 23.941406 56.419922 C 23.881836 56.789649 23.766667 57.347462 23.552734 58.369141 C 23.051696 60.762324 22 65.683054 22 68 C 22 71.988228 22.895184 74.624582 25.140625 76.9375 A 0.50005 0.50005 0 1 0 25.859375 76.242188 C 23.778816 74.099106 23 71.845772 23 68 C 23 66.004946 24.030288 60.967035 24.53125 58.574219 C 24.745317 57.551897 24.861307 56.992351 24.927734 56.580078 A 0.50005 0.50005 0 0 0 24.408203 55.994141 z M 29.496094 78.824219 A 0.50005 0.50005 0 0 0 29.310547 79.789062 C 30.553067 80.300628 31.933682 80.644421 33.439453 80.830078 A 0.50005 0.50005 0 1 0 33.560547 79.837891 C 32.130318 79.661548 30.836933 79.335716 29.689453 78.863281 A 0.50005 0.50005 0 0 0 29.496094 78.824219 z M 35.464844 79.978516 A 0.50009536 0.50009536 0 0 0 35.484375 80.978516 C 35.700383 80.985147 35.928226 81 36.183594 81 C 36.308214 81 36.420853 80.997588 36.525391 80.992188 A 0.50064429 0.50064429 0 1 0 36.474609 79.992188 C 36.387145 79.99673 36.290973 80 36.183594 80 C 35.970961 80 35.755618 79.985876 35.515625 79.978516 A 0.50005 0.50005 0 0 0 35.464844 79.978516 z"/>
</svg>