<?xml version="1.0" encoding="UTF-8" standalone="yes"?>
<svg xmlns="http://www.w3.org/2000/svg" viewBox="0 0 80 80" width="50" height="50" fill="#000000">
  <path d="M 40 14 C 24.0625 14 13.003906 18.953125 13.003906 18.953125 L 12.769531 19.058594 L 12.617188 19.261719 C 12.617188 19.261719 11.484375 20.75 10.347656 22.640625 C 9.214844 24.535156 8 26.742188 8 28.761719 L 8 33 C 8 35.199219 9.800781 37 12 37 L 20 37 C 23.300781 37 26 34.300781 26 31 L 26 24.8125 C 27.0625 24.542969 33.386719 23 40 23 C 46.613281 23 52.9375 24.542969 54 24.8125 L 54 31 C 54 34.300781 56.699219 37 60 37 L 68 37 C 70.199219 37 72 35.199219 72 33 L 72 28.761719 C 72 26.742188 70.785156 24.53125 69.652344 22.640625 C 68.515625 20.75 67.382813 19.261719 67.382813 19.261719 L 67.230469 19.058594 L 66.996094 18.953125 C 66.996094 18.953125 55.9375 14 40 14 Z M 40 16 C 55.277344 16 65.617188 20.554688 65.949219 20.703125 C 66.085938 20.886719 66.941406 22.015625 67.9375 23.671875 C 69.007813 25.457031 70 27.695313 70 28.761719 L 70 33 C 70 34.117188 69.117188 35 68 35 L 60 35 C 57.84375 35 56.121094 33.320313 56.019531 31.191406 C 56.109375 31.660156 56.523438 32 57 32 C 57.550781 32 58 31.550781 58 31 C 58 30.449219 57.550781 30 57 30 C 56.449219 30 56 30.449219 56 31 L 56 23.230469 L 55.253906 23.03125 C 55.253906 23.03125 47.546875 21 40 21 C 32.453125 21 24.746094 23.03125 24.746094 23.03125 L 24 23.230469 L 24 31 C 24 30.449219 23.550781 30 23 30 C 22.449219 30 22 30.449219 22 31 C 22 31.550781 22.449219 32 23 32 C 23.476563 32 23.890625 31.660156 23.980469 31.191406 C 23.878906 33.320313 22.15625 35 20 35 L 12 35 C 10.882813 35 10 34.117188 10 33 L 10 28.761719 C 10 27.695313 10.992188 25.457031 12.0625 23.671875 C 13.058594 22.015625 13.914063 20.886719 14.050781 20.703125 C 14.382813 20.554688 24.722656 16 40 16 Z M 10 31 C 10 31.550781 10.449219 32 11 32 C 11.550781 32 12 31.550781 12 31 C 12 30.449219 11.550781 30 11 30 C 10.449219 30 10 30.449219 10 31 Z M 70 31 C 70 30.449219 69.550781 30 69 30 C 68.449219 30 68 30.449219 68 31 C 68 31.550781 68.449219 32 69 32 C 69.550781 32 70 31.550781 70 31 Z M 35.5 25 C 33.578125 25 32 26.578125 32 28.5 L 32 30 L 30.542969 30 L 14.695313 48.410156 C 13.601563 49.679688 13 51.300781 13 52.976563 L 13 59.417969 C 11.894531 59.859375 11 60.742188 11 62 C 11 63.644531 12.355469 65 14 65 L 66 65 C 67.644531 65 69 63.644531 69 62 C 69 60.742188 68.105469 59.859375 67 59.417969 L 67 52.976563 C 67 51.300781 66.398438 49.679688 65.304688 48.410156 L 49.457031 30 L 48 30 L 48 28.5 C 48 26.578125 46.421875 25 44.5 25 C 42.578125 25 41 26.578125 41 28.5 L 41 30 L 39 30 L 39 28.5 C 39 26.578125 37.421875 25 35.5 25 Z M 35.5 27 C 36.339844 27 37 27.660156 37 28.5 L 37 32 L 43 32 L 43 28.5 C 43 27.660156 43.660156 27 44.5 27 C 45.339844 27 46 27.660156 46 28.5 L 46 32 L 48.542969 32 L 63.789063 49.714844 C 64.570313 50.621094 65 51.777344 65 52.976563 L 65 61 L 66 61 C 66.566406 61 67 61.433594 67 62 C 67 62.566406 66.566406 63 66 63 L 14 63 C 13.433594 63 13 62.566406 13 62 C 13 61.433594 13.433594 61 14 61 L 15 61 L 15 52.976563 C 15 51.777344 15.429688 50.621094 16.210938 49.714844 L 31.457031 32 L 34 32 L 34 28.5 C 34 27.660156 34.660156 27 35.5 27 Z M 15 30 C 14.449219 30 14 30.449219 14 31 C 14 31.550781 14.449219 32 15 32 C 15.550781 32 16 31.550781 16 31 C 16 30.449219 15.550781 30 15 30 Z M 19 30 C 18.449219 30 18 30.449219 18 31 C 18 31.550781 18.449219 32 19 32 C 19.550781 32 20 31.550781 20 31 C 20 30.449219 19.550781 30 19 30 Z M 61 30 C 60.449219 30 60 30.449219 60 31 C 60 31.550781 60.449219 32 61 32 C 61.550781 32 62 31.550781 62 31 C 62 30.449219 61.550781 30 61 30 Z M 65 30 C 64.449219 30 64 30.449219 64 31 C 64 31.550781 64.449219 32 65 32 C 65.550781 32 66 31.550781 66 31 C 66 30.449219 65.550781 30 65 30 Z M 30.5 40 C 29.671875 40 29 40.671875 29 41.5 C 29 42.328125 29.671875 43 30.5 43 L 33.5 43 C 34.328125 43 35 42.328125 35 41.5 C 35 40.671875 34.328125 40 33.5 40 Z M 38.5 40 C 37.671875 40 37 40.671875 37 41.5 C 37 42.328125 37.671875 43 38.5 43 L 41.5 43 C 42.328125 43 43 42.328125 43 41.5 C 43 40.671875 42.328125 40 41.5 40 Z M 46.5 40 C 45.671875 40 45 40.671875 45 41.5 C 45 42.328125 45.671875 43 46.5 43 L 49.5 43 C 50.328125 43 51 42.328125 51 41.5 C 51 40.671875 50.328125 40 49.5 40 Z M 30.5 45 C 29.671875 45 29 45.671875 29 46.5 C 29 47.328125 29.671875 48 30.5 48 L 33.5 48 C 34.328125 48 35 47.328125 35 46.5 C 35 45.671875 34.328125 45 33.5 45 Z M 38.5 45 C 37.671875 45 37 45.671875 37 46.5 C 37 47.328125 37.671875 48 38.5 48 L 41.5 48 C 42.328125 48 43 47.328125 43 46.5 C 43 45.671875 42.328125 45 41.5 45 Z M 46.5 45 C 45.671875 45 45 45.671875 45 46.5 C 45 47.328125 45.671875 48 46.5 48 L 49.5 48 C 50.328125 48 51 47.328125 51 46.5 C 51 45.671875 50.328125 45 49.5 45 Z M 30.5 50 C 29.671875 50 29 50.671875 29 51.5 C 29 52.328125 29.671875 53 30.5 53 L 33.5 53 C 34.328125 53 35 52.328125 35 51.5 C 35 50.671875 34.328125 50 33.5 50 Z M 38.5 50 C 37.671875 50 37 50.671875 37 51.5 C 37 52.328125 37.671875 53 38.5 53 L 41.5 53 C 42.328125 53 43 52.328125 43 51.5 C 43 50.671875 42.328125 50 41.5 50 Z M 46.5 50 C 45.671875 50 45 50.671875 45 51.5 C 45 52.328125 45.671875 53 46.5 53 L 49.5 53 C 50.328125 53 51 52.328125 51 51.5 C 51 50.671875 50.328125 50 49.5 50 Z M 18 59 C 17.449219 59 17 59.449219 17 60 C 17 60.550781 17.449219 61 18 61 C 18.550781 61 19 60.550781 19 60 C 19 59.449219 18.550781 59 18 59 Z M 22 59 C 21.449219 59 21 59.449219 21 60 C 21 60.550781 21.449219 61 22 61 C 22.550781 61 23 60.550781 23 60 C 23 59.449219 22.550781 59 22 59 Z M 26 59 C 25.449219 59 25 59.449219 25 60 C 25 60.550781 25.449219 61 26 61 C 26.550781 61 27 60.550781 27 60 C 27 59.449219 26.550781 59 26 59 Z M 30 59 C 29.449219 59 29 59.449219 29 60 C 29 60.550781 29.449219 61 30 61 C 30.550781 61 31 60.550781 31 60 C 31 59.449219 30.550781 59 30 59 Z M 34 59 C 33.449219 59 33 59.449219 33 60 C 33 60.550781 33.449219 61 34 61 C 34.550781 61 35 60.550781 35 60 C 35 59.449219 34.550781 59 34 59 Z M 38 59 C 37.449219 59 37 59.449219 37 60 C 37 60.550781 37.449219 61 38 61 C 38.550781 61 39 60.550781 39 60 C 39 59.449219 38.550781 59 38 59 Z M 42 59 C 41.449219 59 41 59.449219 41 60 C 41 60.550781 41.449219 61 42 61 C 42.550781 61 43 60.550781 43 60 C 43 59.449219 42.550781 59 42 59 Z M 46 59 C 45.449219 59 45 59.449219 45 60 C 45 60.550781 45.449219 61 46 61 C 46.550781 61 47 60.550781 47 60 C 47 59.449219 46.550781 59 46 59 Z M 50 59 C 49.449219 59 49 59.449219 49 60 C 49 60.550781 49.449219 61 50 61 C 50.550781 61 51 60.550781 51 60 C 51 59.449219 50.550781 59 50 59 Z M 54 59 C 53.449219 59 53 59.449219 53 60 C 53 60.550781 53.449219 61 54 61 C 54.550781 61 55 60.550781 55 60 C 55 59.449219 54.550781 59 54 59 Z M 58 59 C 57.449219 59 57 59.449219 57 60 C 57 60.550781 57.449219 61 58 61 C 58.550781 61 59 60.550781 59 60 C 59 59.449219 58.550781 59 58 59 Z M 62 59 C 61.449219 59 61 59.449219 61 60 C 61 60.550781 61.449219 61 62 61 C 62.550781 61 63 60.550781 63 60 C 63 59.449219 62.550781 59 62 59 Z"/>
</svg>