<?xml version="1.0" encoding="UTF-8" standalone="yes"?>
<svg xmlns="http://www.w3.org/2000/svg" viewBox="0 0 80 80" width="50" height="50" fill="#000000">
  <path d="M 50 8 C 37.321824 8 27 18.072971 27 30.5 C 27 35.543476 28.700578 40.199173 31.568359 43.951172 L 27.0625 48.386719 C 26.019663 48.043148 24.883202 48.068982 24.054688 48.884766 L 7.8847656 64.804688 C 6.7189615 65.952579 6.7189615 67.86578 7.8847656 69.013672 L 11.056641 72.134766 C 12.222614 73.282824 14.121136 73.282824 15.287109 72.134766 L 31.458984 56.216797 C 32.281005 55.407423 32.312324 54.282069 31.974609 53.248047 L 36.552734 48.740234 C 40.338322 51.417039 44.982594 53 50 53 C 62.678176 53 73 42.927029 73 30.5 C 73 18.072971 62.678176 8 50 8 z M 50 10 C 61.621824 10 71 19.179029 71 30.5 C 71 41.820971 61.621824 51 50 51 C 38.378176 51 29 41.820971 29 30.5 C 29 19.179029 38.378176 10 50 10 z M 50 11.953125 C 49.448 11.953125 49 12.3945 49 12.9375 C 49 13.4815 49.448 13.921875 50 13.921875 C 50.552 13.921875 51 13.4805 51 12.9375 C 51 12.3945 50.552 11.953125 50 11.953125 z M 45.478516 12.566406 C 45.349859 12.548781 45.215281 12.556547 45.082031 12.591797 C 44.549031 12.732797 44.232 13.270875 44.375 13.796875 C 44.518 14.321875 45.065609 14.633188 45.599609 14.492188 C 46.132609 14.351187 46.449641 13.813109 46.306641 13.287109 C 46.199391 12.893359 45.864484 12.619281 45.478516 12.566406 z M 54.521484 12.568359 C 54.135375 12.621234 53.800609 12.893359 53.693359 13.287109 C 53.550359 13.812109 53.867391 14.353141 54.400391 14.494141 C 54.933391 14.635141 55.482 14.323828 55.625 13.798828 C 55.768 13.273828 55.450969 12.732797 54.917969 12.591797 C 54.784469 12.556547 54.650188 12.550734 54.521484 12.568359 z M 40.875 14.333984 C 40.746047 14.349781 40.617797 14.390984 40.498047 14.458984 C 40.020047 14.730984 39.856812 15.333688 40.132812 15.804688 C 40.408813 16.275687 41.020047 16.436062 41.498047 16.164062 C 41.976047 15.892062 42.141234 15.289359 41.865234 14.818359 C 41.658234 14.465109 41.261859 14.286594 40.875 14.333984 z M 59.123047 14.335938 C 58.736328 14.288547 58.341766 14.467063 58.134766 14.820312 C 57.858766 15.291313 58.022 15.894016 58.5 16.166016 C 58.978 16.438016 59.589234 16.277641 59.865234 15.806641 C 60.141234 15.335641 59.978 14.732937 59.5 14.460938 C 59.3805 14.392938 59.251953 14.351734 59.123047 14.335938 z M 37.271484 17.142578 C 37.015609 17.142578 36.759953 17.239641 36.564453 17.431641 C 36.173453 17.815641 36.173453 18.438266 36.564453 18.822266 C 36.955453 19.206266 37.588516 19.206266 37.978516 18.822266 C 38.369516 18.438266 38.369516 17.815641 37.978516 17.431641 C 37.783516 17.239641 37.527359 17.142578 37.271484 17.142578 z M 62.726562 17.142578 C 62.470687 17.142578 62.215031 17.239641 62.019531 17.431641 C 61.628531 17.815641 61.628531 18.438266 62.019531 18.822266 C 62.410531 19.206266 63.043594 19.206266 63.433594 18.822266 C 63.824594 18.438266 63.824594 17.815641 63.433594 17.431641 C 63.238594 17.239641 62.982438 17.142578 62.726562 17.142578 z M 34.535156 20.820312 C 34.148438 20.772922 33.753875 20.951438 33.546875 21.304688 C 33.270875 21.775688 33.434109 22.378391 33.912109 22.650391 C 34.390109 22.922391 35.001344 22.760062 35.277344 22.289062 C 35.553344 21.818062 35.390109 21.217312 34.912109 20.945312 C 34.792609 20.877313 34.664062 20.836109 34.535156 20.820312 z M 65.462891 20.820312 C 65.333938 20.835984 65.205687 20.875609 65.085938 20.943359 C 64.607938 21.215359 64.444703 21.818062 64.720703 22.289062 C 64.996703 22.760063 65.607937 22.920438 66.085938 22.648438 C 66.563937 22.376437 66.727172 21.775688 66.451172 21.304688 C 66.244172 20.952188 65.84975 20.773297 65.462891 20.820312 z M 53.074219 22 L 45 40 L 46.927734 40 L 55 22 L 53.074219 22 z M 42.232422 24.359375 C 40.565296 26.359526 38.899296 28.359526 37.232422 30.359375 L 36.697266 31 L 37.232422 31.640625 C 38.899296 33.640474 40.565296 35.640474 42.232422 37.640625 L 43.767578 36.359375 C 42.278589 34.572945 40.789801 32.786671 39.300781 31 C 40.789801 29.213329 42.278589 27.427055 43.767578 25.640625 L 42.232422 24.359375 z M 57.767578 24.359375 L 56.232422 25.640625 C 57.721411 27.427055 59.210199 29.213329 60.699219 31 C 59.210199 32.786671 57.721411 34.572945 56.232422 36.359375 L 57.767578 37.640625 C 59.434704 35.640474 61.100704 33.640474 62.767578 31.640625 L 63.302734 31 L 62.767578 30.359375 C 61.100704 28.359526 59.434704 26.359526 57.767578 24.359375 z M 32.476562 25.095703 C 32.090594 25.148578 31.753734 25.422656 31.646484 25.816406 C 31.503484 26.341406 31.820516 26.882437 32.353516 27.023438 C 32.886516 27.164437 33.435125 26.851172 33.578125 26.326172 C 33.721125 25.801172 33.404094 25.262094 32.871094 25.121094 C 32.737844 25.085844 32.605219 25.078078 32.476562 25.095703 z M 67.523438 25.095703 C 67.394781 25.078078 67.262156 25.085844 67.128906 25.121094 C 66.595906 25.262094 66.278875 25.800172 66.421875 26.326172 C 66.564875 26.851172 67.112484 27.164438 67.646484 27.023438 C 68.179484 26.882438 68.496516 26.342406 68.353516 25.816406 C 68.246266 25.422656 67.909406 25.148578 67.523438 25.095703 z M 32 29.671875 C 31.448 29.671875 31 30.11325 31 30.65625 C 31 31.20025 31.448 31.640625 32 31.640625 C 32.552 31.640625 33 31.19925 33 30.65625 C 33 30.11325 32.552 29.671875 32 29.671875 z M 68 29.671875 C 67.448 29.671875 67 30.11325 67 30.65625 C 67 31.20025 67.448 31.640625 68 31.640625 C 68.552 31.640625 69 31.19925 69 30.65625 C 69 30.11325 68.552 29.671875 68 29.671875 z M 32.75 34.267578 C 32.621422 34.250031 32.486766 34.257719 32.353516 34.292969 C 31.820516 34.433969 31.503484 34.972047 31.646484 35.498047 C 31.789484 36.024047 32.337094 36.336313 32.871094 36.195312 C 33.404094 36.054313 33.721125 35.514281 33.578125 34.988281 C 33.470125 34.593781 33.135734 34.320219 32.75 34.267578 z M 67.25 34.269531 C 66.863891 34.322547 66.529125 34.594531 66.421875 34.988281 C 66.278875 35.513281 66.595906 36.054312 67.128906 36.195312 C 67.661906 36.336312 68.210516 36.023047 68.353516 35.498047 C 68.496516 34.973047 68.179484 34.433969 67.646484 34.292969 C 67.512984 34.257969 67.378703 34.251859 67.25 34.269531 z M 34.287109 38.537109 C 34.158203 38.552781 34.029656 38.594359 33.910156 38.662109 C 33.432156 38.934109 33.268922 39.536812 33.544922 40.007812 C 33.820922 40.478812 34.432156 40.639187 34.910156 40.367188 C 35.388156 40.095188 35.553344 39.492484 35.277344 39.021484 C 35.070344 38.668984 34.673828 38.490094 34.287109 38.537109 z M 65.710938 38.541016 C 65.324219 38.493625 64.927703 38.672141 64.720703 39.025391 C 64.444703 39.496391 64.609891 40.099094 65.087891 40.371094 C 65.565891 40.643094 66.177125 40.482719 66.453125 40.011719 C 66.729125 39.540719 66.565891 38.938016 66.087891 38.666016 C 65.968391 38.598016 65.839844 38.556812 65.710938 38.541016 z M 37.271484 42.201172 C 37.015609 42.201172 36.759953 42.297734 36.564453 42.490234 C 36.173453 42.874234 36.173453 43.498812 36.564453 43.882812 C 36.955453 44.266813 37.588516 44.266813 37.978516 43.882812 C 38.369516 43.498812 38.369516 42.874234 37.978516 42.490234 C 37.783516 42.297734 37.527359 42.201172 37.271484 42.201172 z M 62.726562 42.201172 C 62.470687 42.201172 62.215031 42.297734 62.019531 42.490234 C 61.628531 42.874234 61.628531 43.498812 62.019531 43.882812 C 62.410531 44.266813 63.043594 44.266813 63.433594 43.882812 C 63.823594 43.498812 63.824594 42.874234 63.433594 42.490234 C 63.238594 42.297734 62.982438 42.201172 62.726562 42.201172 z M 58.875 45.021484 C 58.746172 45.037203 58.617547 45.078484 58.498047 45.146484 C 58.020047 45.418484 57.856812 46.021187 58.132812 46.492188 C 58.408813 46.963187 59.020047 47.123563 59.498047 46.851562 C 59.976047 46.579563 60.141234 45.978812 59.865234 45.507812 C 59.657484 45.155313 59.261484 44.974328 58.875 45.021484 z M 41.121094 45.025391 C 40.734375 44.978 40.339813 45.156516 40.132812 45.509766 C 39.856812 45.980766 40.020047 46.583469 40.498047 46.855469 C 40.976047 47.127469 41.587281 46.965141 41.863281 46.494141 C 42.139281 46.023141 41.976047 45.422391 41.498047 45.150391 C 41.378547 45.082391 41.25 45.041187 41.121094 45.025391 z M 32.859375 45.488281 C 33.514146 46.204141 34.216685 46.87493 34.958984 47.503906 L 30.921875 51.478516 L 28.847656 49.4375 L 32.859375 45.488281 z M 54.794922 46.796875 C 54.666219 46.779328 54.531937 46.787016 54.398438 46.822266 C 53.865437 46.963266 53.548406 47.501344 53.691406 48.027344 C 53.834406 48.553344 54.383969 48.865609 54.917969 48.724609 C 55.451969 48.583609 55.766047 48.043578 55.623047 47.517578 C 55.515797 47.123078 55.181031 46.849516 54.794922 46.796875 z M 45.203125 46.798828 C 44.817016 46.851703 44.48225 47.125781 44.375 47.519531 C 44.232 48.044531 44.549031 48.583609 45.082031 48.724609 C 45.615031 48.865609 46.163641 48.554297 46.306641 48.029297 C 46.449641 47.504297 46.132609 46.963266 45.599609 46.822266 C 45.466109 46.787016 45.331828 46.781203 45.203125 46.798828 z M 50 47.390625 C 49.448 47.390625 49 47.832 49 48.375 C 49 48.919 49.448 49.359375 50 49.359375 C 50.552 49.359375 51 48.918 51 48.375 C 51 47.831 50.552 47.390625 50 47.390625 z M 26.171875 50.017578 C 26.429063 50.017578 26.6848 50.115578 26.882812 50.310547 L 30.054688 53.433594 C 30.449144 53.823387 30.450501 54.403169 30.056641 54.791016 L 13.884766 70.710938 C 13.488739 71.100878 12.855011 71.100878 12.458984 70.710938 L 9.2871094 67.587891 C 8.8909135 67.197782 8.8909135 66.620577 9.2871094 66.230469 L 11 64.544922 L 13.298828 66.806641 L 14.701172 65.380859 L 12.425781 63.140625 L 14 61.589844 L 16.298828 63.853516 L 17.701172 62.427734 L 15.425781 60.1875 L 17 58.636719 L 19.298828 60.900391 L 20.701172 59.474609 L 18.425781 57.234375 L 20 55.683594 L 22.298828 57.947266 L 23.701172 56.521484 L 21.425781 54.28125 L 23 52.730469 L 25.298828 54.994141 L 26.701172 53.568359 L 24.425781 51.328125 L 25.458984 50.310547 C 25.656998 50.115576 25.914687 50.017578 26.171875 50.017578 z"/>
</svg>