<?xml version="1.0" encoding="UTF-8" standalone="yes"?>
<svg xmlns="http://www.w3.org/2000/svg" viewBox="0 0 64 64" width="50" height="50" fill="#000000">
  <path d="M 3 6 C 1.347656 6 0 7.347656 0 9 L 0 53 C 0 54.652344 1.347656 56 3 56 L 13 56 C 13.554688 56 14 55.550781 14 55 L 14 53.222656 C 14 52.941406 13.878906 52.667969 13.671875 52.480469 C 13.144531 52.003906 12.910156 51.332031 13.03125 50.640625 C 13.171875 49.84375 13.84375 49.167969 14.632813 49.03125 C 15.242188 48.925781 15.824219 49.082031 16.285156 49.46875 C 16.738281 49.851563 17 50.40625 17 51 C 17 51.5625 16.761719 52.089844 16.328125 52.480469 C 16.121094 52.667969 16 52.9375 16 53.222656 L 16 55 C 16 55.550781 16.445313 56 17 56 L 29 56 C 29.554688 56 30 55.550781 30 55 L 30 53.222656 C 30 52.941406 29.878906 52.667969 29.671875 52.480469 C 29.144531 52.003906 28.910156 51.332031 29.03125 50.640625 C 29.171875 49.84375 29.84375 49.167969 30.632813 49.03125 C 31.242188 48.925781 31.824219 49.082031 32.285156 49.46875 C 32.738281 49.851563 33 50.40625 33 51 C 33 51.5625 32.761719 52.089844 32.328125 52.480469 C 32.121094 52.667969 32 52.9375 32 53.222656 L 32 55 C 32 55.550781 32.445313 56 33 56 L 45 56 C 45.554688 56 46 55.550781 46 55 L 46 53.222656 C 46 52.941406 45.878906 52.667969 45.671875 52.480469 C 45.144531 52.003906 44.910156 51.332031 45.03125 50.640625 C 45.171875 49.84375 45.84375 49.167969 46.632813 49.03125 C 47.242188 48.925781 47.824219 49.082031 48.285156 49.46875 C 48.738281 49.851563 49 50.40625 49 51 C 49 51.5625 48.761719 52.089844 48.328125 52.480469 C 48.121094 52.667969 48 52.9375 48 53.222656 L 48 55 C 48 55.550781 48.445313 56 49 56 L 59 56 C 60.652344 56 62 54.652344 62 53 L 62 15 C 62 13.347656 60.652344 12 59 12 L 31.65625 12 C 30.867188 12 30.09375 11.679688 29.535156 11.121094 L 25.878906 7.464844 C 24.933594 6.519531 23.679688 6 22.34375 6 Z M 3 8 L 22.34375 8 C 23.132813 8 23.90625 8.320313 24.464844 8.878906 L 28.121094 12.535156 C 29.066406 13.480469 30.320313 14 31.65625 14 L 59 14 C 59.550781 14 60 14.449219 60 15 L 60 53 C 60 53.550781 59.550781 54 59 54 L 50 54 L 50 53.628906 C 50.640625 52.902344 51 51.964844 51 51 C 51 49.816406 50.480469 48.699219 49.574219 47.9375 C 48.667969 47.175781 47.46875 46.859375 46.292969 47.0625 C 44.671875 47.34375 43.347656 48.671875 43.0625 50.296875 C 42.851563 51.503906 43.199219 52.722656 44 53.628906 L 44 54 L 34 54 L 34 53.628906 C 34.640625 52.902344 35 51.964844 35 51 C 35 49.816406 34.480469 48.699219 33.574219 47.9375 C 32.667969 47.175781 31.46875 46.859375 30.292969 47.0625 C 28.671875 47.34375 27.347656 48.671875 27.0625 50.296875 C 26.851563 51.503906 27.199219 52.722656 28 53.628906 L 28 54 L 18 54 L 18 53.628906 C 18.640625 52.902344 19 51.964844 19 51 C 19 49.816406 18.480469 48.699219 17.574219 47.9375 C 16.667969 47.175781 15.46875 46.859375 14.292969 47.0625 C 12.671875 47.34375 11.347656 48.671875 11.0625 50.296875 C 10.851563 51.503906 11.199219 52.722656 12 53.628906 L 12 54 L 3 54 C 2.449219 54 2 53.550781 2 53 L 2 9 C 2 8.449219 2.449219 8 3 8 Z M 19 16 C 15.140625 16 12 19.140625 12 23 L 12 25 C 12 26.613281 12.550781 28.3125 13.492188 29.722656 C 10.359375 30.847656 7.683594 33.25 6.097656 36.566406 C 5.859375 37.0625 6.070313 37.664063 6.570313 37.902344 C 7.066406 38.140625 7.664063 37.925781 7.902344 37.429688 C 9.382813 34.339844 11.945313 32.167969 14.90625 31.355469 C 16.042969 32.359375 17.441406 33 19 33 C 20.558594 33 21.957031 32.359375 23.09375 31.359375 C 26.058594 32.167969 28.617188 34.339844 30.097656 37.433594 C 30.269531 37.789063 30.628906 38 31 38 C 31.148438 38 31.292969 37.96875 31.433594 37.902344 C 31.929688 37.664063 32.140625 37.066406 31.902344 36.566406 C 30.316406 33.253906 27.644531 30.847656 24.511719 29.722656 C 25.449219 28.3125 26 26.617188 26 25 L 26 23 C 26 19.140625 22.859375 16 19 16 Z M 19 18 C 21.757813 18 24 20.242188 24 23 L 24 25 C 24 27.71875 21.769531 31 19 31 C 16.230469 31 14 27.71875 14 25 L 14 23 C 14 20.242188 16.242188 18 19 18 Z M 35 22 C 34.445313 22 34 22.449219 34 23 C 34 23.550781 34.445313 24 35 24 L 45 24 C 45.554688 24 46 23.550781 46 23 C 46 22.449219 45.554688 22 45 22 Z M 49 22 C 48.445313 22 48 22.449219 48 23 C 48 23.550781 48.445313 24 49 24 L 53 24 C 53.554688 24 54 23.550781 54 23 C 54 22.449219 53.554688 22 53 22 Z M 35 26 C 34.445313 26 34 26.449219 34 27 C 34 27.550781 34.445313 28 35 28 L 53 28 C 53.554688 28 54 27.550781 54 27 C 54 26.449219 53.554688 26 53 26 Z M 35 30 C 34.445313 30 34 30.449219 34 31 C 34 31.550781 34.445313 32 35 32 L 47 32 C 47.554688 32 48 31.550781 48 31 C 48 30.449219 47.554688 30 47 30 Z M 6 40 C 5.398438 40 5 40.445313 5 41 L 5 43 C 5 43.554688 5.398438 44 6 44 C 6.601563 44 7 43.554688 7 43 L 7 41 C 7 40.449219 6.601563 40 6 40 Z M 11 40 C 10.398438 40 10 40.445313 10 41 L 10 43 C 10 43.554688 10.398438 44 11 44 C 11.601563 44 12 43.554688 12 43 L 12 41 C 12 40.449219 11.601563 40 11 40 Z M 16 40 C 15.398438 40 15 40.445313 15 41 L 15 43 C 15 43.554688 15.398438 44 16 44 C 16.601563 44 17 43.554688 17 43 L 17 41 C 17 40.449219 16.601563 40 16 40 Z M 21 40 C 20.398438 40 20 40.445313 20 41 L 20 43 C 20 43.554688 20.398438 44 21 44 C 21.601563 44 22 43.554688 22 43 L 22 41 C 22 40.449219 21.601563 40 21 40 Z M 26 40 C 25.398438 40 25 40.445313 25 41 L 25 43 C 25 43.554688 25.398438 44 26 44 C 26.601563 44 27 43.554688 27 43 L 27 41 C 27 40.449219 26.601563 40 26 40 Z M 31 40 C 30.398438 40 30 40.445313 30 41 L 30 43 C 30 43.554688 30.398438 44 31 44 C 31.601563 44 32 43.554688 32 43 L 32 41 C 32 40.449219 31.601563 40 31 40 Z M 36 40 C 35.398438 40 35 40.445313 35 41 L 35 43 C 35 43.554688 35.398438 44 36 44 C 36.601563 44 37 43.554688 37 43 L 37 41 C 37 40.449219 36.601563 40 36 40 Z M 41 40 C 40.398438 40 40 40.445313 40 41 L 40 43 C 40 43.554688 40.398438 44 41 44 C 41.601563 44 42 43.554688 42 43 L 42 41 C 42 40.449219 41.601563 40 41 40 Z M 46 40 C 45.398438 40 45 40.445313 45 41 L 45 43 C 45 43.554688 45.398438 44 46 44 C 46.601563 44 47 43.554688 47 43 L 47 41 C 47 40.449219 46.601563 40 46 40 Z M 51 40 C 50.398438 40 50 40.445313 50 41 L 50 43 C 50 43.554688 50.398438 44 51 44 C 51.601563 44 52 43.554688 52 43 L 52 41 C 52 40.449219 51.601563 40 51 40 Z M 56 40 C 55.398438 40 55 40.445313 55 41 L 55 43 C 55 43.554688 55.398438 44 56 44 C 56.601563 44 57 43.554688 57 43 L 57 41 C 57 40.449219 56.601563 40 56 40 Z"/>
</svg>