<?xml version="1.0" encoding="UTF-8" standalone="yes"?>
<svg xmlns="http://www.w3.org/2000/svg" viewBox="0 0 80 80" width="50" height="50" fill="#000000">
  <path d="M 38 8 C 22.464844 8 10 20.507813 10 35.09375 C 10 43.320313 13.417969 48.582031 16.691406 53.066406 C 19.964844 57.554688 23 61.238281 23 66.734375 L 23 73 L 25 73 L 25 66.734375 C 25 60.5 21.535156 56.3125 18.308594 51.890625 C 15.082031 47.464844 12 42.777344 12 35.09375 C 12 21.648438 23.535156 10 38 10 C 54.53125 10 63 21.503906 63 32.890625 L 63 33.164063 L 69.878906 44.847656 C 70.140625 45.289063 69.984375 45.820313 69.53125 46.050781 L 63 49.390625 L 63 58 C 63 61.878906 59.878906 65 56 65 L 49 65 C 48.449219 65 48 65.449219 48 66 C 48 66.550781 48.449219 67 49 67 L 49 73 L 51 73 L 51 67 L 56 67 C 60.957031 67 65 62.957031 65 58 L 65 50.609375 L 70.4375 47.832031 C 71.894531 47.089844 72.429688 45.242188 71.605469 43.832031 L 64.96875 32.566406 C 64.804688 20.277344 55.316406 8 38 8 Z M 41.011719 23.984375 C 40.574219 23.984375 40.183594 24.265625 40.050781 24.683594 L 34.050781 42.683594 C 33.875 43.207031 34.160156 43.773438 34.683594 43.949219 C 35.207031 44.125 35.773438 43.839844 35.949219 43.316406 L 41.949219 25.316406 C 42.054688 25.011719 42.007813 24.675781 41.824219 24.410156 C 41.636719 24.144531 41.335938 23.988281 41.011719 23.984375 Z M 25.019531 27.988281 C 24.65625 27.984375 24.316406 28.179688 24.136719 28.496094 L 20.34375 35 L 24.136719 41.503906 C 24.308594 41.824219 24.644531 42.027344 25.011719 42.027344 C 25.375 42.03125 25.710938 41.832031 25.890625 41.515625 C 26.066406 41.195313 26.058594 40.804688 25.863281 40.496094 L 22.65625 35 L 25.863281 29.503906 C 26.046875 29.195313 26.054688 28.816406 25.878906 28.5 C 25.707031 28.1875 25.378906 27.992188 25.019531 27.988281 Z M 49.449219 27.988281 C 49.097656 28.003906 48.777344 28.203125 48.613281 28.515625 C 48.445313 28.824219 48.453125 29.203125 48.636719 29.503906 L 51.84375 35 L 48.636719 40.496094 C 48.441406 40.804688 48.433594 41.195313 48.609375 41.515625 C 48.789063 41.832031 49.125 42.03125 49.488281 42.027344 C 49.855469 42.027344 50.191406 41.824219 50.363281 41.503906 L 54.15625 35 L 50.363281 28.496094 C 50.179688 28.167969 49.824219 27.972656 49.449219 27.988281 Z M 28 34 C 27.449219 34 27 34.449219 27 35 C 27 35.550781 27.449219 36 28 36 C 28.550781 36 29 35.550781 29 35 C 29 34.449219 28.550781 34 28 34 Z M 32 34 C 31.449219 34 31 34.449219 31 35 C 31 35.550781 31.449219 36 32 36 C 32.550781 36 33 35.550781 33 35 C 33 34.449219 32.550781 34 32 34 Z M 43 34 C 42.449219 34 42 34.449219 42 35 C 42 35.550781 42.449219 36 43 36 C 43.550781 36 44 35.550781 44 35 C 44 34.449219 43.550781 34 43 34 Z M 47 34 C 46.449219 34 46 34.449219 46 35 C 46 35.550781 46.449219 36 47 36 C 47.550781 36 48 35.550781 48 35 C 48 34.449219 47.550781 34 47 34 Z M 38 61 C 37.449219 61 37 61.449219 37 62 C 37 62.550781 37.449219 63 38 63 C 38.550781 63 39 62.550781 39 62 C 39 61.449219 38.550781 61 38 61 Z M 41 64 C 40.449219 64 40 64.449219 40 65 C 40 65.550781 40.449219 66 41 66 C 41.550781 66 42 65.550781 42 65 C 42 64.449219 41.550781 64 41 64 Z M 45 65 C 44.449219 65 44 65.449219 44 66 C 44 66.550781 44.449219 67 45 67 C 45.550781 67 46 66.550781 46 66 C 46 65.449219 45.550781 65 45 65 Z"/>
</svg>