<?xml version="1.0" encoding="UTF-8" standalone="yes"?>
<svg xmlns="http://www.w3.org/2000/svg" viewBox="0 0 80 80" width="50" height="50" fill="#000000">
  <path d="M 9 10 C 6.800781 10 5 11.800781 5 14 L 5 64 C 5 66.199219 6.800781 68 9 68 L 71 68 C 73.199219 68 75 66.199219 75 64 L 75 20 C 75 17.800781 73.199219 16 71 16 L 35 16 L 35 14 C 35 11.800781 33.199219 10 31 10 Z M 9 12 L 31 12 C 32.117188 12 33 12.882813 33 14 L 33 18 L 71 18 C 72.117188 18 73 18.882813 73 20 L 73 64 C 73 65.117188 72.117188 66 71 66 L 60 66 L 60 63.730469 C 60.617188 63.371094 61 62.714844 61 62 C 61 60.894531 60.105469 60 59 60 C 57.894531 60 57 60.894531 57 62 C 57 62.714844 57.382813 63.375 58 63.730469 L 58 66 L 22 66 L 22 63.730469 C 22.617188 63.375 23 62.714844 23 62 C 23 60.894531 22.105469 60 21 60 C 19.894531 60 19 60.894531 19 62 C 19 62.714844 19.382813 63.371094 20 63.730469 L 20 66 L 9 66 C 7.882813 66 7 65.117188 7 64 L 7 14 C 7 12.882813 7.882813 12 9 12 Z M 10 16 C 9.449219 16 9 16.449219 9 17 C 9 17.550781 9.449219 18 10 18 C 10.550781 18 11 17.550781 11 17 C 11 16.449219 10.550781 16 10 16 Z M 14 16 C 13.449219 16 13 16.449219 13 17 C 13 17.550781 13.449219 18 14 18 C 14.550781 18 15 17.550781 15 17 C 15 16.449219 14.550781 16 14 16 Z M 18 16 C 17.449219 16 17 16.449219 17 17 C 17 17.550781 17.449219 18 18 18 C 18.550781 18 19 17.550781 19 17 C 19 16.449219 18.550781 16 18 16 Z M 22 16 C 21.449219 16 21 16.449219 21 17 C 21 17.550781 21.449219 18 22 18 C 22.550781 18 23 17.550781 23 17 C 23 16.449219 22.550781 16 22 16 Z M 26 16 C 25.449219 16 25 16.449219 25 17 C 25 17.550781 25.449219 18 26 18 C 26.550781 18 27 17.550781 27 17 C 27 16.449219 26.550781 16 26 16 Z M 30 16 C 29.449219 16 29 16.449219 29 17 C 29 17.550781 29.449219 18 30 18 C 30.550781 18 31 17.550781 31 17 C 31 16.449219 30.550781 16 30 16 Z M 23 31 C 19.699219 31 17 33.699219 17 37 C 17 38.980469 17.976563 40.742188 19.46875 41.835938 C 16.828125 43.144531 15 45.863281 15 49 L 17 49 C 17 45.675781 19.675781 43 23 43 C 26.324219 43 29 45.675781 29 49 L 31 49 C 31 45.863281 29.171875 43.144531 26.53125 41.835938 C 28.023438 40.742188 29 38.980469 29 37 C 29 33.699219 26.300781 31 23 31 Z M 23 33 C 25.222656 33 27 34.777344 27 37 C 27 39.222656 25.222656 41 23 41 C 20.777344 41 19 39.222656 19 37 C 19 34.777344 20.777344 33 23 33 Z M 39 33 L 39 35 L 65 35 L 65 33 Z M 39 39 L 39 41 L 61 41 L 61 39 Z M 39 45 L 39 47 L 65 47 L 65 45 Z M 12 61 C 11.449219 61 11 61.449219 11 62 C 11 62.550781 11.449219 63 12 63 C 12.550781 63 13 62.550781 13 62 C 13 61.449219 12.550781 61 12 61 Z M 16 61 C 15.449219 61 15 61.449219 15 62 C 15 62.550781 15.449219 63 16 63 C 16.550781 63 17 62.550781 17 62 C 17 61.449219 16.550781 61 16 61 Z M 26 61 C 25.449219 61 25 61.449219 25 62 C 25 62.550781 25.449219 63 26 63 C 26.550781 63 27 62.550781 27 62 C 27 61.449219 26.550781 61 26 61 Z M 30 61 C 29.449219 61 29 61.449219 29 62 C 29 62.550781 29.449219 63 30 63 C 30.550781 63 31 62.550781 31 62 C 31 61.449219 30.550781 61 30 61 Z M 34 61 C 33.449219 61 33 61.449219 33 62 C 33 62.550781 33.449219 63 34 63 C 34.550781 63 35 62.550781 35 62 C 35 61.449219 34.550781 61 34 61 Z M 38 61 C 37.449219 61 37 61.449219 37 62 C 37 62.550781 37.449219 63 38 63 C 38.550781 63 39 62.550781 39 62 C 39 61.449219 38.550781 61 38 61 Z M 42 61 C 41.449219 61 41 61.449219 41 62 C 41 62.550781 41.449219 63 42 63 C 42.550781 63 43 62.550781 43 62 C 43 61.449219 42.550781 61 42 61 Z M 46 61 C 45.449219 61 45 61.449219 45 62 C 45 62.550781 45.449219 63 46 63 C 46.550781 63 47 62.550781 47 62 C 47 61.449219 46.550781 61 46 61 Z M 50 61 C 49.449219 61 49 61.449219 49 62 C 49 62.550781 49.449219 63 50 63 C 50.550781 63 51 62.550781 51 62 C 51 61.449219 50.550781 61 50 61 Z M 54 61 C 53.449219 61 53 61.449219 53 62 C 53 62.550781 53.449219 63 54 63 C 54.550781 63 55 62.550781 55 62 C 55 61.449219 54.550781 61 54 61 Z M 64 61 C 63.449219 61 63 61.449219 63 62 C 63 62.550781 63.449219 63 64 63 C 64.550781 63 65 62.550781 65 62 C 65 61.449219 64.550781 61 64 61 Z M 68 61 C 67.449219 61 67 61.449219 67 62 C 67 62.550781 67.449219 63 68 63 C 68.550781 63 69 62.550781 69 62 C 69 61.449219 68.550781 61 68 61 Z"/>
</svg>