<?xml version="1.0" encoding="UTF-8" standalone="yes"?>
<svg xmlns="http://www.w3.org/2000/svg" viewBox="0 0 64 64" width="50" height="50" fill="#000000">
  <path d="M 34 6 C 25.429 6 17.179703 8.658875 11.345703 13.296875 C 11.317611 13.313652 11.2925 13.336441 11.265625 13.355469 C 10.336289 13.919269 9.5233247 14.654256 8.8476562 15.537109 L 8.5703125 15.8125 L 8.5703125 15.921875 C 7.5423125 17.427875 7 19.177 7 21 C 7 21.407026 7.0331504 21.811586 7.0878906 22.212891 C 3.9028938 24.465956 2 28.082594 2 32 C 2 37.267824 5.4130003 41.868037 10.376953 43.435547 L 10.085938 45.089844 C 9.5199375 48.299844 10.396188 51.573313 12.492188 54.070312 C 14.587187 56.567312 17.657969 58 20.917969 58 L 47.082031 58 C 50.342031 58 53.412813 56.567359 55.507812 54.068359 C 57.603812 51.571359 58.480063 48.298891 57.914062 45.087891 L 55.568359 31.787109 C 55.407684 30.715938 55.130852 29.678014 54.761719 28.673828 C 54.954485 28.700528 55.14768 28.716797 55.339844 28.716797 C 56.374844 28.716797 57.378234 28.333953 58.115234 27.626953 C 58.828234 26.942953 59.443719 26.146031 59.886719 25.332031 C 60.615719 24.013031 61 22.516 61 21 C 61 19.168 60.452109 17.410438 59.412109 15.898438 L 59.408203 15.804688 L 59.126953 15.513672 C 58.443953 14.809672 57.681375 14.114266 56.859375 13.447266 C 56.795375 13.388266 56.726297 13.339875 56.654297 13.296875 C 50.820297 8.658875 42.571 6 34 6 z M 34 8 C 42.164 8 49.994375 10.522875 55.484375 14.921875 L 55.628906 15.035156 L 55.650391 15.042969 C 56.359391 15.620969 57.018766 16.220656 57.634766 16.847656 C 58.527766 18.065656 59 19.501 59 21 C 59 21.864835 58.836228 22.721177 58.525391 23.523438 L 46 20.228516 L 46 19 C 46 17.119 45.468406 16.101781 42.316406 15.050781 C 39.572406 14.136781 35.928 14 34 14 C 32.072 14 28.428547 14.136781 25.685547 15.050781 C 22.533547 16.101781 22.001953 17.119 22.001953 19 L 22.001953 20.228516 L 9.4746094 23.525391 C 9.1639493 22.724366 9 21.866274 9 21 C 9 19.504816 9.4698264 18.074383 10.357422 16.859375 C 10.659654 16.550078 10.976031 16.239976 11.310547 15.935547 C 11.312905 15.933401 11.316 15.931833 11.318359 15.929688 C 11.653182 15.625228 12.005844 15.325697 12.369141 15.029297 L 12.515625 14.919922 C 18.005625 10.521922 25.836 8 34 8 z M 32.972656 10.013672 C 30.910656 10.065672 27.972594 10.287781 25.683594 11.050781 C 25.159594 11.225781 24.875781 11.792406 25.050781 12.316406 C 25.190781 12.735406 25.581 13 26 13 C 26.104 13 26.211406 12.983219 26.316406 12.949219 C 28.479406 12.227219 31.446438 12.052719 33.023438 12.011719 C 33.575437 11.997719 34.010094 11.538328 33.996094 10.986328 C 33.982094 10.433328 33.519656 9.9616719 32.972656 10.013672 z M 37.205078 10.125 C 36.644078 10.068 36.172906 10.491969 36.128906 11.042969 C 36.084906 11.593969 36.493922 12.075141 37.044922 12.119141 C 38.929922 12.271141 40.490594 12.549266 41.683594 12.947266 C 41.788594 12.982266 41.896 13 42 13 C 42.419 13 42.808266 12.735453 42.947266 12.314453 C 43.122266 11.790453 42.840406 11.223828 42.316406 11.048828 C 40.970406 10.600828 39.250078 10.29 37.205078 10.125 z M 34 16 C 35.455 16 39.114594 16.092219 41.683594 16.949219 C 43.547581 17.570548 43.899702 17.930328 43.970703 18.527344 C 42.65393 18.178974 41.298096 18 39.921875 18 L 28.078125 18 C 26.702981 18 25.346451 18.178846 24.029297 18.527344 C 24.100298 17.930328 24.452419 17.570548 26.316406 16.949219 C 28.885406 16.092219 32.545 16 34 16 z M 28.078125 20 L 39.921875 20 C 41.315497 20 42.681216 20.219586 44 20.626953 L 44 22.847656 C 44 24.563656 45.1565 26.080203 46.8125 26.533203 L 52.314453 28.041016 C 52.940825 29.314798 53.379688 30.671793 53.595703 32.111328 L 55.945312 45.435547 C 56.409312 48.062547 55.691563 50.742156 53.976562 52.785156 C 52.262563 54.828156 49.749031 56 47.082031 56 L 20.917969 56 C 18.349732 56 15.931271 54.904827 14.224609 53 L 43 53 C 43.552 53 44 52.553 44 52 C 44 51.447 43.552 51 43 51 L 13 51 C 12.954933 51 12.91654 51.019617 12.873047 51.025391 C 12.015472 49.314489 11.715201 47.36175 12.054688 45.435547 L 14.408203 32.085938 C 14.620795 30.667554 15.057309 29.313634 15.683594 28.041016 L 21.1875 26.533203 C 22.8435 26.079203 24 24.563656 24 22.847656 L 24 20.626953 C 25.318553 20.219267 26.68563 20 28.078125 20 z M 46 22.294922 L 57.505859 25.322266 C 57.272074 25.623783 57.013245 25.914657 56.732422 26.183594 C 56.240422 26.656594 55.491109 26.832484 54.787109 26.646484 L 47.339844 24.603516 C 46.550844 24.387516 46 23.665656 46 22.847656 L 46 22.294922 z M 22.001953 22.296875 L 22.001953 22.847656 C 22.001953 23.665656 21.449156 24.387516 20.660156 24.603516 L 14.417969 26.314453 L 14.345703 26.273438 C 14.332479 26.296515 14.321696 26.320618 14.308594 26.34375 L 13.222656 26.642578 C 12.508656 26.830578 11.760578 26.654641 11.267578 26.181641 C 10.987776 25.913189 10.729583 25.625158 10.496094 25.324219 L 22.001953 22.296875 z M 34 23 C 26.832 23 21 28.832 21 36 C 21 43.168 26.832 49 34 49 C 41.168 49 47 43.168 47 36 C 47 28.832 41.168 23 34 23 z M 7.6269531 24.300781 C 7.7659693 24.653063 7.9283879 24.996814 8.1113281 25.328125 C 8.2560122 25.594409 8.4235539 25.855062 8.6015625 26.113281 C 6.9473082 27.627514 6 29.737212 6 32 C 6 35.327685 8.0197564 38.254531 11.080078 39.449219 L 10.726562 41.451172 C 6.7268855 40.072204 4 36.300704 4 32 C 4 28.991707 5.3403426 26.192032 7.6269531 24.300781 z M 34 25 C 40.065 25 45 29.935 45 36 C 45 42.065 40.065 47 34 47 C 27.935 47 23 42.065 23 36 C 23 29.935 27.935 25 34 25 z M 36.382812 27.396484 C 35.994172 27.430516 35.647031 27.692188 35.519531 28.085938 L 34.902344 29.986328 C 34.732344 30.512328 35.019922 31.076094 35.544922 31.246094 C 35.647922 31.279094 35.751516 31.296875 35.853516 31.296875 C 36.275516 31.296875 36.667687 31.026516 36.804688 30.603516 L 37.421875 28.701172 C 37.591875 28.175172 37.304297 27.611406 36.779297 27.441406 C 36.647547 27.399156 36.512359 27.385141 36.382812 27.396484 z M 31.019531 27.585938 C 30.889547 27.583719 30.757406 27.606953 30.628906 27.658203 C 30.117906 27.865203 29.869172 28.448937 30.076172 28.960938 L 30.826172 30.814453 C 30.984172 31.203453 31.357906 31.439453 31.753906 31.439453 C 31.878906 31.439453 32.006906 31.416187 32.128906 31.367188 C 32.639906 31.160188 32.886688 30.576453 32.679688 30.064453 L 31.929688 28.210938 C 31.774438 27.827688 31.409484 27.592594 31.019531 27.585938 z M 9.8925781 27.634766 C 10.763884 28.465291 12.005776 28.8459 13.236328 28.675781 C 12.868378 29.675823 12.594431 30.706271 12.435547 31.763672 L 11.439453 37.417969 C 9.3559696 36.438671 8 34.357533 8 32 C 8 30.328446 8.6875173 28.767185 9.8925781 27.634766 z M 40.619141 30.777344 C 40.490906 30.797875 40.363094 30.844969 40.246094 30.917969 L 38.552734 31.978516 C 38.084734 32.271516 37.941375 32.887469 38.234375 33.355469 C 38.424375 33.658469 38.750984 33.824219 39.083984 33.824219 C 39.265984 33.824219 39.449281 33.775828 39.613281 33.673828 L 41.308594 32.611328 C 41.776594 32.318328 41.918 31.702375 41.625 31.234375 C 41.40525 30.883375 41.003844 30.71575 40.619141 30.777344 z M 27.027344 31.248047 C 26.639125 31.213219 26.251641 31.408188 26.056641 31.773438 C 25.796641 32.261437 25.98175 32.867953 26.46875 33.126953 L 28.232422 34.066406 C 28.382422 34.146406 28.542172 34.185547 28.701172 34.185547 C 29.059172 34.185547 29.405937 33.991297 29.585938 33.654297 C 29.845938 33.166297 29.660828 32.561734 29.173828 32.302734 L 27.408203 31.361328 C 27.286203 31.296328 27.15675 31.259656 27.027344 31.248047 z M 34 34 A 2 2 0 0 0 32 36 A 2 2 0 0 0 34 38 A 2 2 0 0 0 36 36 A 2 2 0 0 0 34 34 z M 40.072266 35.84375 C 39.527266 35.75975 39.019359 36.148266 38.943359 36.697266 C 38.866359 37.244266 39.249875 37.748219 39.796875 37.824219 L 41.777344 38.101562 C 41.824344 38.108562 41.871969 38.111328 41.917969 38.111328 C 42.407969 38.111328 42.834297 37.750047 42.904297 37.248047 C 42.981297 36.701047 42.599734 36.195141 42.052734 36.119141 L 40.072266 35.84375 z M 28.322266 36.265625 C 28.194656 36.240828 28.059328 36.241281 27.923828 36.269531 L 25.966797 36.683594 C 25.426797 36.798594 25.081312 37.329141 25.195312 37.869141 C 25.295312 38.340141 25.711828 38.662109 26.173828 38.662109 C 26.242828 38.662109 26.312813 38.655625 26.382812 38.640625 L 28.339844 38.226562 C 28.879844 38.111563 29.224375 37.579062 29.109375 37.039062 C 29.023125 36.634062 28.705094 36.340016 28.322266 36.265625 z M 38.060547 39.455078 C 37.805047 39.441953 37.545344 39.526438 37.339844 39.710938 C 36.929844 40.080938 36.895625 40.711094 37.265625 41.121094 L 38.605469 42.607422 C 38.803469 42.827422 39.076609 42.939453 39.349609 42.939453 C 39.587609 42.939453 39.825578 42.853641 40.017578 42.681641 C 40.427578 42.311641 40.461797 41.679531 40.091797 41.269531 L 38.753906 39.783203 C 38.568406 39.577203 38.316047 39.468203 38.060547 39.455078 z M 30.189453 39.732422 C 29.935328 39.763422 29.693437 39.889922 29.523438 40.107422 L 28.291016 41.683594 C 27.950016 42.117594 28.027891 42.745937 28.462891 43.085938 C 28.645891 43.229937 28.862125 43.298828 29.078125 43.298828 C 29.375125 43.298828 29.667234 43.166063 29.865234 42.914062 L 31.097656 41.339844 C 31.438656 40.905844 31.362734 40.2775 30.927734 39.9375 C 30.710234 39.767 30.443578 39.701422 30.189453 39.732422 z M 34.175781 40.988281 C 33.623781 41.006281 33.191938 41.469484 33.210938 42.021484 L 33.279297 44.021484 C 33.298297 44.561484 33.740344 44.986328 34.277344 44.986328 C 34.288344 44.986328 34.3005 44.987328 34.3125 44.986328 C 34.8645 44.968328 35.296344 44.505125 35.277344 43.953125 L 35.208984 41.953125 C 35.189984 41.401125 34.717781 40.930281 34.175781 40.988281 z M 47 51 C 46.448 51 46 51.447 46 52 C 46 52.553 46.448 53 47 53 L 51 53 C 51.552 53 52 52.553 52 52 C 52 51.447 51.552 51 51 51 L 47 51 z"/>
</svg>