<svg xmlns="http://www.w3.org/2000/svg" id="Layer_1" x="0" y="0" version="1.1" viewBox="0 0 128 128" xml:space="preserve" width="50" height="50"><path fill="#fff" d="M64 9A55 55 0 1 0 64 119A55 55 0 1 0 64 9Z"/><path fill="#444b54" d="M64,122C32,122,6,96,6,64S32,6,64,6s58,26,58,58S96,122,64,122z M64,12c-28.7,0-52,23.3-52,52s23.3,52,52,52 s52-23.3,52-52S92.7,12,64,12z"/><path fill="#71c2ff" d="M83.1 75.1c-.8 0-1.6-.3-2.2-1-1.1-1.2-1-3.1.2-4.2l6.6-5.8-6.6-5.8c-1.2-1.1-1.3-3-.2-4.2 1.1-1.2 3-1.3 4.2-.2l9.1 8.1c.6.6 1 1.4 1 2.2s-.4 1.7-1 2.2l-9.1 8.1C84.6 74.8 83.9 75.1 83.1 75.1zM44.9 75.1c-.7 0-1.4-.2-2-.8l-9.1-8.1c-.6-.6-1-1.4-1-2.2s.4-1.7 1-2.2l9.1-8.1c1.2-1.1 3.1-1 4.2.2s1 3.1-.2 4.2L40.3 64l6.6 5.8c1.2 1.1 1.3 3 .2 4.2C46.5 74.7 45.7 75.1 44.9 75.1zM59 85c-.3 0-.5 0-.8-.1-1.6-.4-2.5-2.1-2.1-3.7l10-36c.4-1.6 2.1-2.5 3.7-2.1 1.6.4 2.5 2.1 2.1 3.7l-10 36C61.5 84.1 60.3 85 59 85z"/></svg>