<?xml version="1.0" encoding="UTF-8" standalone="yes"?>
<svg xmlns="http://www.w3.org/2000/svg" viewBox="0 0 64 64" width="50" height="50" fill="#000000">
  <path d="M 9 6 C 7.343 6 6 7.343 6 9 L 6.0019531 55 C 6.0019531 56.657 7.3449531 58 9.0019531 58 L 44.341797 58 C 45.668797 58.002 46.940859 57.476062 47.880859 56.539062 L 56.541016 47.880859 C 57.478016 46.940859 58 46 58 44 L 58 9 C 58 7.343 56.657 6 55 6 L 9 6 z M 9 8 L 55 8 C 55.552 8 56 8.448 56 9 L 56.001953 44 L 47.001953 44 C 45.344953 44 44.001953 45.343 44.001953 47 L 44.001953 56 L 9.0019531 56 C 8.4499531 56 8 55.552 8 55 L 8 9 C 8 8.448 8.448 8 9 8 z M 12 10 C 11.448 10 11 10.448 11 11 L 11 13 C 11 13.552 11.448 14 12 14 C 12.552 14 13 13.552 13 13 L 13 11 C 13 10.448 12.552 10 12 10 z M 17 10 C 16.448 10 16 10.448 16 11 L 16 13 C 16 13.552 16.448 14 17 14 C 17.552 14 18 13.552 18 13 L 18 11 C 18 10.448 17.552 10 17 10 z M 22 10 C 21.448 10 21 10.448 21 11 L 21 13 C 21 13.552 21.448 14 22 14 C 22.552 14 23 13.552 23 13 L 23 11 C 23 10.448 22.552 10 22 10 z M 27 10 C 26.448 10 26 10.448 26 11 L 26 13 C 26 13.552 26.448 14 27 14 C 27.552 14 28 13.552 28 13 L 28 11 C 28 10.448 27.552 10 27 10 z M 32 10 C 31.448 10 31 10.448 31 11 L 31 13 C 31 13.552 31.448 14 32 14 C 32.552 14 33 13.552 33 13 L 33 11 C 33 10.448 32.552 10 32 10 z M 37 10 C 36.448 10 36 10.448 36 11 L 36 13 C 36 13.552 36.448 14 37 14 C 37.552 14 38 13.552 38 13 L 38 11 C 38 10.448 37.552 10 37 10 z M 42 10 C 41.448 10 41 10.448 41 11 L 41 13 C 41 13.552 41.448 14 42 14 C 42.552 14 43 13.552 43 13 L 43 11 C 43 10.448 42.552 10 42 10 z M 47 10 C 46.448 10 46 10.448 46 11 L 46 13 C 46 13.552 46.448 14 47 14 C 47.552 14 48 13.552 48 13 L 48 11 C 48 10.448 47.552 10 47 10 z M 52 10 C 51.448 10 51 10.448 51 11 L 51 13 C 51 13.552 51.448 14 52 14 C 52.552 14 53 13.552 53 13 L 53 11 C 53 10.448 52.552 10 52 10 z M 22 16 C 19.239 16 17 18.239 17 21 L 17 23 C 16.998 23.953 17.268297 24.885453 17.779297 25.689453 C 14.895297 27.004453 12.840297 29.650531 12.279297 32.769531 C 12.180297 33.321531 12.547609 33.850219 13.099609 33.949219 C 13.651609 34.048219 14.180297 33.682859 14.279297 33.130859 C 14.748297 30.366859 16.720625 28.094234 19.390625 27.240234 C 21.007625 28.245234 23.052922 28.245234 24.669922 27.240234 C 27.339922 28.094234 29.310297 30.366859 29.779297 33.130859 C 29.867297 33.611859 30.290297 33.957219 30.779297 33.949219 C 30.842297 33.959219 30.907703 33.959219 30.970703 33.949219 C 31.510703 33.848219 31.866531 33.330062 31.769531 32.789062 C 31.639531 32.101062 30.000469 26.999453 26.230469 25.689453 C 26.737469 24.884453 27.005 23.952 27 23 L 27 21 C 27 18.239 24.761 16 22 16 z M 37 17 C 36.448 17 36 17.448 36 18 C 36 18.552 36.448 19 37 19 L 51 19 C 51.552 19 52 18.552 52 18 C 52 17.448 51.552 17 51 17 L 37 17 z M 22 18 C 23.657 18 25 19.343 25 21 L 25 23 C 25 24.657 23.657 26 22 26 C 20.343 26 19 24.657 19 23 L 19 21 C 19 19.343 20.343 18 22 18 z M 37 21 C 36.448 21 36 21.448 36 22 C 36 22.552 36.448 23 37 23 L 51 23 C 51.552 23 52 22.552 52 22 C 52 21.448 51.552 21 51 21 L 37 21 z M 37 25 C 36.448 25 36 25.448 36 26 C 36 26.552 36.448 27 37 27 L 41 27 C 41.552 27 42 26.552 42 26 C 42 25.448 41.552 25 41 25 L 37 25 z M 13 37 C 12.448 37 12 37.448 12 38 C 12 38.552 12.448 39 13 39 L 35 39 C 35.552 39 36 38.552 36 38 C 36 37.448 35.552 37 35 37 L 13 37 z M 39 37 C 38.448 37 38 37.448 38 38 C 38 38.552 38.448 39 39 39 L 45 39 C 45.552 39 46 38.552 46 38 C 46 37.448 45.552 37 45 37 L 39 37 z M 13 41 C 12.448 41 12 41.448 12 42 C 12 42.552 12.448 43 13 43 L 41 43 C 41.552 43 42 42.552 42 42 C 42 41.448 41.552 41 41 41 L 13 41 z M 46.951172 46 L 55.521484 46 C 55.406484 46.184 55.272094 46.354766 55.121094 46.509766 L 46.460938 55.119141 C 46.319938 55.257141 46.165 55.381281 46 55.488281 L 45.951172 47 C 45.951172 46.448 46.399172 46 46.951172 46 z"/>
</svg>